<svg xmlns="http://www.w3.org/2000/svg" width="760" height="284" viewBox="0 0 760 284" font-family="-apple-system,BlinkMacSystemFont,Segoe UI,Helvetica,Arial,sans-serif"><text x="0" y="22" font-size="17" font-weight="600" fill="#1f2328">Real-world interactions, Pixel 8a</text><text x="0" y="44" font-size="13" fill="#59636e">ms, lower is better</text><rect x="510" y="33" width="12" height="12" rx="2" fill="#1a7f37"/><text x="528" y="44" font-size="13" fill="#1f2328">hermes-intl</text><rect x="620" y="33" width="12" height="12" rx="2" fill="#d9480f"/><text x="638" y="44" font-size="13" fill="#1f2328">FormatJS</text><text x="0" y="85" font-size="14" fill="#1f2328">Open a 20-row screen</text><rect x="250" y="64" width="196.70886075949366" height="13" rx="3" fill="#1a7f37"/><text x="452.70886075949363" y="75" font-size="12" fill="#59636e">37 ms</text><rect x="250" y="80" width="420" height="13" rx="3" fill="#d9480f"/><text x="676" y="91" font-size="12" fill="#59636e">79 ms</text><text x="0" y="129" font-size="14" fill="#1f2328">Switch language</text><rect x="250" y="108" width="175.44303797468353" height="13" rx="3" fill="#1a7f37"/><text x="431.44303797468353" y="119" font-size="12" fill="#59636e">33 ms</text><rect x="250" y="124" width="340.253164556962" height="13" rx="3" fill="#d9480f"/><text x="596.253164556962" y="135" font-size="12" fill="#59636e">64 ms</text><text x="0" y="173" font-size="14" fill="#1f2328">Search, worst keystroke</text><rect x="250" y="152" width="223.2911392405063" height="13" rx="3" fill="#1a7f37"/><text x="479.2911392405063" y="163" font-size="12" fill="#59636e">42 ms</text><rect x="250" y="168" width="334.9367088607595" height="13" rx="3" fill="#d9480f"/><text x="590.9367088607595" y="179" font-size="12" fill="#59636e">63 ms</text><text x="0" y="217" font-size="14" fill="#1f2328">Scroll, worst frame</text><rect x="250" y="196" width="196.70886075949366" height="13" rx="3" fill="#1a7f37"/><text x="452.70886075949363" y="207" font-size="12" fill="#59636e">37 ms</text><rect x="250" y="212" width="409.36708860759495" height="13" rx="3" fill="#d9480f"/><text x="665.367088607595" y="223" font-size="12" fill="#59636e">77 ms</text><text x="0" y="261" font-size="14" fill="#1f2328">Intl setup at startup</text><rect x="250" y="240" width="7.443037974683543" height="13" rx="3" fill="#1a7f37"/><text x="263.44303797468353" y="251" font-size="12" fill="#59636e">1.4 ms</text><rect x="250" y="256" width="106.32911392405065" height="13" rx="3" fill="#d9480f"/><text x="362.32911392405066" y="267" font-size="12" fill="#59636e">20 ms</text></svg>
